<svg width="565" height="528" viewBox="0 0 565 528" fill="none" xmlns="http://www.w3.org/2000/svg">
<g clip-path="url(#clip0_4_1220)">
<path d="M522.288 403.935L547.634 407.893C556.214 397.514 562.128 385.199 564.864 372.017C546.33 387.176 518.145 379.121 495.672 387.396C488.682 390.031 482.376 394.204 477.22 399.605C472.064 405.006 468.19 411.497 465.886 418.597L453.499 431.913C464.712 436.349 476.754 438.302 488.795 437.64C500.836 436.978 512.59 433.715 523.248 428.076C529.196 424.854 534.713 420.896 539.671 416.296C530.803 410.716 522.288 403.935 522.288 403.935Z" fill="#F2F2F2"/>
<path d="M513.29 363.432L537.743 355.68C540.789 342.567 540.586 328.909 537.15 315.892C527.328 337.718 498.506 343.068 482.085 360.489C477.006 365.962 473.223 372.507 471.019 379.639C468.815 386.77 468.245 394.307 469.352 401.688L464.209 419.126C476.225 418.1 487.875 414.482 498.357 408.524C508.838 402.565 517.903 394.407 524.925 384.611C528.81 379.077 531.982 373.076 534.366 366.749C523.938 365.707 513.29 363.432 513.29 363.432Z" fill="#F2F2F2"/>
<path d="M565 439.98C565 440.11 564.975 440.24 564.925 440.361C564.875 440.482 564.802 440.591 564.709 440.684C564.617 440.776 564.507 440.849 564.386 440.899C564.265 440.949 564.136 440.974 564.005 440.974H0.995119C0.731206 440.974 0.478098 440.869 0.291483 440.683C0.104868 440.496 3.05176e-05 440.243 3.05176e-05 439.98C3.05176e-05 439.716 0.104868 439.463 0.291483 439.277C0.478098 439.09 0.731206 438.986 0.995119 438.986H564.005C564.136 438.985 564.265 439.011 564.386 439.06C564.507 439.11 564.617 439.183 564.709 439.276C564.802 439.368 564.875 439.478 564.925 439.599C564.975 439.72 565 439.849 565 439.98Z" fill="#CCCCCC"/>
<path d="M233.3 397.592C332.592 397.592 413.084 317.167 413.084 217.957C413.084 118.747 332.592 38.3216 233.3 38.3216C134.008 38.3216 53.5154 118.747 53.5154 217.957C53.5154 317.167 134.008 397.592 233.3 397.592Z" fill="#E6E6E6"/>
<path d="M387.998 217.957C388.016 242.076 382.378 265.863 371.534 287.411C360.691 308.959 344.945 327.669 325.559 342.039C324.262 343.008 322.941 343.952 321.612 344.871C295.688 362.877 264.872 372.527 233.3 372.527C201.728 372.527 170.912 362.877 144.988 344.871C143.658 343.952 142.337 343.008 141.041 342.039C121.668 327.656 105.932 308.944 95.0901 287.399C84.2482 265.853 78.6016 242.072 78.6016 217.957C78.6016 193.842 84.2482 170.061 95.0901 148.515C105.932 126.97 121.668 108.258 141.041 93.8748C142.337 92.9057 143.658 91.9615 144.988 91.0425C170.912 73.0373 201.728 63.387 233.3 63.387C264.872 63.387 295.688 73.0373 321.612 91.0425C322.941 91.9615 324.262 92.9057 325.559 93.8748C344.945 108.245 360.691 126.955 371.534 148.503C382.378 170.051 388.016 193.838 387.998 217.957Z" fill="white"/>
<path d="M233.3 359.159C311.348 359.159 374.619 295.94 374.619 217.957C374.619 139.973 311.348 76.7552 233.3 76.7552C155.252 76.7552 91.9809 139.973 91.9809 217.957C91.9809 295.94 155.252 359.159 233.3 359.159Z" fill="#666666"/>
<path opacity="0.2" d="M233.669 77.1499C231.526 77.1499 229.397 77.2059 227.278 77.3001C262.996 80.4361 296.185 97.0207 320.121 123.694C344.058 150.367 356.952 185.134 356.191 220.952C355.43 256.769 341.071 290.958 316.023 316.593C290.976 342.227 257.112 357.39 221.294 359.008C225.373 359.362 229.498 359.553 233.669 359.553C271.149 359.553 307.094 344.677 333.596 318.196C360.099 291.716 374.988 255.801 374.988 218.352C374.988 180.903 360.099 144.987 333.596 118.507C307.094 92.0265 271.149 77.1499 233.669 77.1499Z" fill="#666666"/>
<path d="M233.718 66.729C232.499 66.7311 231.33 67.216 230.468 68.0773C229.606 68.9386 229.121 70.1062 229.119 71.3243V91.3767C229.119 92.5954 229.603 93.7642 230.466 94.626C231.328 95.4878 232.498 95.972 233.718 95.972C234.938 95.972 236.108 95.4878 236.97 94.626C237.833 93.7642 238.317 92.5954 238.317 91.3767V71.3243C238.315 70.1062 237.83 68.9386 236.968 68.0773C236.106 67.216 234.937 66.7311 233.718 66.729Z" fill="white"/>
<path d="M325.559 93.8748C324.262 92.9056 322.941 91.9615 321.612 91.0424C320.814 90.9905 320.016 91.1473 319.298 91.4975C318.579 91.8477 317.964 92.3792 317.514 93.0393L306.217 109.608C305.531 110.615 305.273 111.853 305.5 113.05C305.728 114.247 306.422 115.305 307.43 115.991C308.438 116.677 309.677 116.934 310.875 116.707C312.073 116.48 313.132 115.787 313.818 114.779L325.115 98.2111C325.545 97.5826 325.811 96.8566 325.888 96.0993C325.966 95.3419 325.852 94.5772 325.559 93.8748Z" fill="white"/>
<path d="M376.885 169.422C376.658 168.863 376.323 168.355 375.899 167.926C375.475 167.497 374.971 167.155 374.415 166.921C373.859 166.686 373.262 166.564 372.658 166.56C372.055 166.556 371.457 166.671 370.898 166.899L352.3 174.443C351.172 174.903 350.271 175.791 349.798 176.914C349.324 178.036 349.316 179.3 349.775 180.428C350.234 181.557 351.122 182.457 352.245 182.931C353.367 183.405 354.633 183.415 355.762 182.957L374.36 175.413C375.488 174.951 376.387 174.061 376.86 172.938C377.334 171.816 377.343 170.551 376.885 169.422Z" fill="white"/>
<path d="M160.383 109.608L149.085 93.0393C148.635 92.3792 148.021 91.8478 147.302 91.4976C146.583 91.1474 145.786 90.9905 144.988 91.0425C143.658 91.9615 142.337 92.9057 141.041 93.8748C140.747 94.5773 140.634 95.3419 140.711 96.0993C140.789 96.8566 141.054 97.5826 141.484 98.2112L152.781 114.779C153.468 115.787 154.527 116.48 155.725 116.707C156.923 116.934 158.162 116.677 159.17 115.991C160.178 115.305 160.872 114.247 161.099 113.05C161.327 111.853 161.069 110.615 160.383 109.608Z" fill="white"/>
<path d="M114.299 174.443L95.702 166.899C94.5721 166.44 93.3062 166.449 92.1828 166.923C91.0594 167.397 90.1704 168.298 89.7114 169.426C89.2523 170.555 89.2609 171.82 89.7351 172.943C90.2093 174.065 91.1104 174.954 92.2401 175.413L110.837 182.957C111.967 183.415 113.232 183.405 114.355 182.931C115.478 182.457 116.366 181.557 116.825 180.428C117.284 179.3 117.275 178.036 116.802 176.913C116.328 175.791 115.428 174.903 114.299 174.443Z" fill="white"/>
<path d="M233.718 339.942C232.499 339.944 231.33 340.429 230.468 341.29C229.606 342.151 229.121 343.319 229.119 344.537V364.59C229.119 365.808 229.603 366.977 230.466 367.839C231.328 368.701 232.498 369.185 233.718 369.185C234.938 369.185 236.108 368.701 236.97 367.839C237.833 366.977 238.317 365.808 238.317 364.59V344.537C238.315 343.319 237.83 342.151 236.968 341.29C236.106 340.429 234.937 339.944 233.718 339.942Z" fill="white"/>
<path d="M325.115 337.703L313.818 321.134C313.478 320.636 313.043 320.209 312.538 319.878C312.033 319.547 311.468 319.319 310.875 319.207C310.282 319.094 309.672 319.099 309.081 319.222C308.49 319.345 307.929 319.583 307.43 319.923C306.93 320.263 306.503 320.697 306.172 321.202C305.841 321.706 305.613 322.271 305.5 322.864C305.388 323.456 305.393 324.066 305.516 324.656C305.639 325.247 305.877 325.808 306.217 326.306L317.514 342.875C317.964 343.535 318.579 344.066 319.298 344.416C320.016 344.766 320.814 344.923 321.612 344.871C322.941 343.952 324.262 343.008 325.559 342.039C325.852 341.337 325.966 340.572 325.888 339.815C325.811 339.057 325.545 338.331 325.115 337.703Z" fill="white"/>
<path d="M374.36 260.501L355.762 252.957C354.633 252.498 353.367 252.507 352.243 252.981C351.12 253.455 350.231 254.355 349.772 255.484C349.313 256.613 349.321 257.878 349.795 259.001C350.27 260.123 351.171 261.012 352.3 261.47L370.898 269.015C372.027 269.472 373.293 269.463 374.415 268.989C375.538 268.515 376.426 267.614 376.885 266.486C377.344 265.358 377.336 264.094 376.862 262.971C376.389 261.849 375.488 260.961 374.36 260.501Z" fill="white"/>
<path d="M159.17 319.923C158.162 319.237 156.923 318.98 155.725 319.207C154.527 319.434 153.468 320.128 152.782 321.134L141.484 337.703C141.055 338.331 140.789 339.057 140.711 339.815C140.634 340.572 140.747 341.337 141.041 342.039C142.337 343.008 143.658 343.952 144.988 344.871C145.786 344.923 146.583 344.766 147.302 344.416C148.021 344.066 148.635 343.535 149.085 342.874L160.383 326.306C160.723 325.808 160.961 325.247 161.084 324.656C161.207 324.066 161.212 323.456 161.1 322.864C160.987 322.271 160.759 321.706 160.428 321.201C160.097 320.697 159.669 320.262 159.17 319.923Z" fill="white"/>
<path d="M116.825 255.48C116.597 254.921 116.262 254.413 115.839 253.984C115.415 253.554 114.91 253.213 114.354 252.979C113.798 252.744 113.201 252.622 112.598 252.618C111.995 252.614 111.396 252.729 110.837 252.957L92.2401 260.501C91.1113 260.961 90.2111 261.849 89.7376 262.971C89.264 264.094 89.2557 265.358 89.7145 266.486C90.1733 267.614 91.0617 268.515 92.1844 268.989C93.3071 269.463 94.5723 269.472 95.702 269.015L114.299 261.47C115.428 261.009 116.327 260.119 116.8 258.996C117.273 257.873 117.282 256.609 116.825 255.48Z" fill="white"/>
<path d="M239.685 215.677C240.11 218.189 239.52 220.766 238.045 222.844C236.57 224.922 234.331 226.33 231.818 226.76L150.205 240.631C148.96 240.842 147.686 240.807 146.455 240.526C145.224 240.246 144.06 239.726 143.03 238.996C142 238.266 141.123 237.34 140.451 236.272C139.779 235.204 139.324 234.014 139.113 232.77C138.901 231.526 138.936 230.252 139.217 229.022C139.498 227.792 140.018 226.629 140.749 225.6C141.48 224.571 142.406 223.695 143.475 223.024C144.544 222.352 145.735 221.898 146.98 221.686L228.593 207.816C231.106 207.391 233.686 207.981 235.766 209.454C237.845 210.928 239.255 213.166 239.685 215.677Z" fill="#1E1E1E"/>
<path d="M325.58 306.022C324.408 307.2 322.815 307.865 321.153 307.872C319.49 307.878 317.892 307.225 316.711 306.056L228.856 218.963C227.677 217.793 227.012 216.202 227.006 214.541C227 212.88 227.655 211.285 228.826 210.106C229.996 208.927 231.588 208.26 233.25 208.253C234.912 208.246 236.51 208.898 237.691 210.067L325.545 297.16C326.724 298.331 327.39 299.922 327.397 301.583C327.403 303.245 326.75 304.841 325.58 306.022Z" fill="#1E1E1E"/>
<path d="M233.3 228.819C239.304 228.819 244.171 223.956 244.171 217.957C244.171 211.958 239.304 207.095 233.3 207.095C227.296 207.095 222.429 211.958 222.429 217.957C222.429 223.956 227.296 228.819 233.3 228.819Z" fill="#CCCCCC"/>
<path d="M158.423 29.6145C141.736 55.8267 116.277 73.2223 84.8784 84.6502C84.258 85.1145 83.5521 85.4521 82.8011 85.6438C82.05 85.8355 81.2686 85.8776 80.5013 85.7675C79.734 85.6575 78.9959 85.3975 78.3291 85.0025C77.6624 84.6074 77.0801 84.085 76.6154 83.4651C59.5602 60.712 63.4113 28.1933 85.9205 10.8073C91.3625 6.61124 97.5844 3.5371 104.225 1.76332C110.866 -0.0104559 117.793 -0.448538 124.605 0.474519C131.416 1.39758 137.976 3.66338 143.904 7.14038C149.832 10.6174 155.01 15.2363 159.137 20.7291L159.609 21.3584C160.073 21.9783 160.411 22.6836 160.603 23.434C160.795 24.1844 160.837 24.9653 160.727 25.7319C160.617 26.4986 160.357 27.236 159.961 27.9022C159.566 28.5684 159.043 29.1503 158.423 29.6145Z" fill="#E6E6E6"/>
<path d="M307.463 20.729C311.59 15.2363 316.767 10.6174 322.695 7.14036C328.623 3.66335 335.183 1.39756 341.995 0.474507C348.807 -0.44855 355.734 -0.0104803 362.375 1.7633C369.015 3.53707 375.237 6.61121 380.679 10.8073C403.188 28.1933 407.039 60.712 389.984 83.4651C389.52 84.085 388.937 84.6074 388.271 85.0024C387.604 85.3975 386.866 85.6575 386.098 85.7675C385.331 85.8776 384.55 85.8355 383.799 85.6438C383.048 85.4521 382.342 85.1144 381.721 84.6501C352.573 73.4999 328.67 54.2045 308.177 29.6145C306.924 28.6768 306.095 27.2802 305.873 25.7319C305.65 24.1835 306.053 22.6103 306.991 21.3583L307.463 20.729Z" fill="#E6E6E6"/>
<path d="M300.149 373.586C299.086 374.183 298.303 375.176 297.972 376.349C297.641 377.521 297.788 378.777 298.381 379.841L324.924 427.233C325.52 428.296 326.514 429.08 327.688 429.411C328.862 429.742 330.119 429.593 331.183 428.998C332.247 428.403 333.031 427.41 333.363 426.237C333.695 425.065 333.546 423.809 332.951 422.745L306.408 375.353C305.811 374.291 304.817 373.508 303.644 373.177C302.471 372.846 301.214 372.993 300.149 373.586Z" fill="#E6E6E6"/>
<path d="M160.191 375.353L133.649 422.745C133.053 423.809 132.905 425.065 133.237 426.237C133.568 427.41 134.352 428.403 135.417 428.998C136.481 429.593 137.738 429.742 138.912 429.411C140.086 429.08 141.08 428.296 141.676 427.233L168.218 379.841C168.513 379.314 168.702 378.734 168.773 378.135C168.844 377.536 168.796 376.928 168.632 376.347C168.467 375.767 168.19 375.224 167.816 374.75C167.442 374.276 166.978 373.88 166.451 373.586C165.924 373.291 165.344 373.103 164.744 373.032C164.144 372.961 163.536 373.009 162.955 373.173C162.374 373.338 161.83 373.614 161.356 373.988C160.882 374.362 160.486 374.826 160.191 375.353Z" fill="#E6E6E6"/>
<path d="M330.3 439.368C338.151 439.368 344.515 433.009 344.515 425.164C344.515 417.32 338.151 410.96 330.3 410.96C322.449 410.96 316.084 417.32 316.084 425.164C316.084 433.009 322.449 439.368 330.3 439.368Z" fill="#E6E6E6"/>
<path d="M340.334 75.9197C348.185 75.9197 354.55 69.5604 354.55 61.7159C354.55 53.8714 348.185 47.5122 340.334 47.5122C332.483 47.5122 326.119 53.8714 326.119 61.7159C326.119 69.5604 332.483 75.9197 340.334 75.9197Z" fill="#E6E6E6"/>
<path d="M232.464 42.4991C240.315 42.4991 246.679 36.1399 246.679 28.2954C246.679 20.4509 240.315 14.0917 232.464 14.0917C224.613 14.0917 218.248 20.4509 218.248 28.2954C218.248 36.1399 224.613 42.4991 232.464 42.4991Z" fill="#E6E6E6"/>
<path d="M129.61 74.2486C137.461 74.2486 143.826 67.8894 143.826 60.0449C143.826 52.2004 137.461 45.8412 129.61 45.8412C121.759 45.8412 115.395 52.2004 115.395 60.0449C115.395 67.8894 121.759 74.2486 129.61 74.2486Z" fill="#E6E6E6"/>
<path d="M138.808 439.368C146.659 439.368 153.024 433.009 153.024 425.164C153.024 417.32 146.659 410.96 138.808 410.96C130.957 410.96 124.593 417.32 124.593 425.164C124.593 433.009 130.957 439.368 138.808 439.368Z" fill="#E6E6E6"/>
<path d="M319.149 298.033C319.71 298.91 320.455 299.653 321.334 300.211C322.213 300.768 323.204 301.126 324.236 301.26C325.269 301.393 326.318 301.299 327.31 300.984C328.302 300.668 329.213 300.139 329.978 299.434L352.285 311.377L351.088 298.291L330.089 288.957C328.819 287.751 327.149 287.052 325.397 286.994C323.645 286.935 321.933 287.521 320.584 288.64C319.236 289.758 318.345 291.333 318.081 293.064C317.816 294.795 318.196 296.563 319.149 298.033Z" fill="#FFB7B7"/>
<path d="M335.402 302.6L344.143 290.544L386.255 310.434L438.657 300.61C441.247 300.125 443.913 300.215 446.464 300.874C449.016 301.534 451.391 302.746 453.42 304.426C455.45 306.106 457.085 308.211 458.208 310.593C459.332 312.975 459.917 315.575 459.922 318.208C459.926 322.964 458.041 327.528 454.681 330.897C451.321 334.266 446.761 336.167 442.001 336.18L381.948 336.292L335.402 302.6Z" fill="#1E1E1E"/>
<path d="M321.939 510.832L313.094 506.606L325.244 469.67L338.296 475.908L321.939 510.832Z" fill="#FFB7B7"/>
<path d="M381.231 504.877C380.588 505.28 379.945 505.676 379.295 506.072C378.002 506.864 376.697 507.643 375.391 508.408C374.735 508.791 374.072 509.174 373.416 509.551V509.57L373.377 509.577L373.364 509.583L372.364 509.83L370.928 506.039L370.265 504.293L369.33 501.82L367.615 497.296L358.585 473.475L372.623 470.015L373.15 472.163H373.156L373.416 473.228L378.321 493.103L379.321 497.166L379.353 497.29L379.958 499.717L380.477 501.82L381.056 504.17L381.231 504.877Z" fill="#FFB7B7"/>
<path d="M464.976 421.222C464.086 422.65 463.176 424.071 462.26 425.48C460.558 428.102 458.811 430.685 457.018 433.23C457.018 433.236 457.011 433.236 457.005 433.243C455.959 434.211 454.803 435.054 453.562 435.755C453.51 435.794 453.451 435.82 453.399 435.852C452.485 436.357 451.512 436.747 450.502 437.014C450.138 437.105 449.768 437.196 449.404 437.287C448.092 437.598 446.793 437.864 445.5 438.098C443.2 438.507 440.927 438.799 438.666 438.981C438.484 439 438.302 439.013 438.12 439.026C428.824 439.708 419.775 438.611 410.329 436.813C405.665 435.93 400.903 434.872 395.972 433.775C394.361 433.411 392.744 433.054 391.107 432.697C390.983 432.672 390.853 432.639 390.723 432.613C388.385 432.1 386.007 431.594 383.571 431.094C380.505 430.465 377.341 429.854 374.054 429.277L374.288 433.905C374.482 437.465 375.223 440.974 376.484 444.31C377.887 448.412 378.998 451.657 376.652 458.414L375.522 461.686C376.108 463.31 376.309 465.048 376.11 466.764C375.91 468.479 375.315 470.124 374.372 471.571L374.145 471.915L383.571 495.743L384.182 497.288H379.355L373.417 497.295H363.355L348.835 468.19L348.14 466.801V466.729L349.641 410.797C349.66 410.304 349.699 409.804 349.764 409.311C350.029 407.068 350.738 404.901 351.85 402.935C352.962 400.969 354.455 399.244 356.241 397.861C357.953 396.524 359.914 395.541 362.009 394.968C364.105 394.395 366.293 394.245 368.448 394.525L373.417 395.167L383.571 396.478L390.723 397.407L390.866 397.426L411.96 400.152L413.473 393.986L413.753 393.882L422.633 390.63L453.347 379.381L453.425 379.355L455.446 378.616L455.686 379.005C455.758 379.122 455.829 379.239 455.894 379.355C457.891 382.932 459.517 386.704 460.747 390.611C462.815 396.993 464.517 403.488 465.846 410.064C465.905 410.349 465.957 410.609 466.002 410.843L466.022 410.914C466.041 411.025 466.054 411.096 466.061 411.115C466.769 414.062 466.275 417.658 464.976 421.222Z" fill="#1E1E1E"/>
<path d="M466.272 400.609C466.175 400.194 466.051 399.772 465.921 399.363C464.89 396.266 463.688 393.228 462.322 390.263C460.789 386.887 458.951 383.272 456.762 379.358C455.703 377.463 454.564 375.492 453.345 373.445C452.734 372.419 452.099 371.374 451.441 370.31C451.415 370.261 451.387 370.213 451.357 370.167L451.168 369.855L420.779 373.919L409.462 375.431L408.787 381.065L408.624 382.461C408.618 382.461 408.618 382.461 408.624 382.467L408.169 386.271V386.277L407.565 391.301L407.513 391.295L390.721 389.12L373.414 386.881L364.118 385.68C361.964 385.4 359.775 385.55 357.68 386.123C355.584 386.696 353.623 387.679 351.912 389.016C350.126 390.4 348.633 392.125 347.521 394.091C346.409 396.057 345.7 398.224 345.435 400.466C345.377 400.921 345.338 401.388 345.318 401.849L336.548 422.613C331.3 435.031 327.958 448.17 326.635 461.584L320.204 482.128L321.12 482.213L334.749 483.478L338.348 483.816L346.273 472.256C347.176 470.938 348.034 469.581 348.833 468.192C350.148 465.924 351.318 463.573 352.334 461.156L369.478 420.393C370.803 420.621 372.115 420.837 373.414 421.042C379.424 422.016 385.192 422.81 390.721 423.425C408.696 425.43 424.261 425.586 438.117 423.885C442.009 423.412 445.77 422.789 449.401 422.016C450.733 421.737 452.048 421.436 453.345 421.114C453.65 421.042 453.949 420.971 454.248 420.893C456.932 420.201 459.401 418.848 461.426 416.956C463.452 415.065 464.971 412.696 465.843 410.066C466.885 407.019 467.034 403.738 466.272 400.609Z" fill="#1E1E1E"/>
<path d="M324.764 504.801L315.195 500.218L313.694 499.498L311.297 505.378L294.563 509.059C293.735 509.24 292.988 509.681 292.429 510.317C291.87 510.953 291.529 511.751 291.457 512.594C291.384 513.438 291.584 514.282 292.025 515.004C292.467 515.726 293.129 516.288 293.913 516.608L310.264 523.274L315.455 518.607L314.181 524.871L320.34 527.382L327.089 505.917L324.764 504.801Z" fill="#1E1E1E"/>
<path d="M383.571 495.743L384.182 497.288H383.571V495.743Z" fill="#1E1E1E"/>
<path d="M380.238 497.618L370.212 501.089L368.638 501.632L371.076 507.496L361.777 521.877C361.316 522.587 361.095 523.426 361.146 524.271C361.197 525.116 361.517 525.922 362.059 526.572C362.602 527.223 363.338 527.683 364.16 527.885C364.983 528.087 365.849 528.022 366.631 527.697L382.944 520.939L383.346 513.973L386.852 519.319L392.997 516.775L382.677 496.777L380.238 497.618Z" fill="#1E1E1E"/>
<path d="M463.772 410.013C463.176 410.012 462.59 409.867 462.063 409.59L409.153 381.966L408.542 379.465L407.389 371.551L407.405 371.477L412.437 348.297C412.345 348.098 412.152 347.772 411.934 347.403C409.688 343.6 402.851 332.025 415.899 316.087L438.807 289.401L458.469 288.556L458.693 288.838C463.95 295.432 467.496 303.22 469.014 311.513C470.533 319.805 469.978 328.344 467.398 336.37L465.351 373.313L467.546 380.774C468.83 385.159 468.618 389.845 466.943 394.096L467.446 406.177C467.466 406.672 467.386 407.166 467.21 407.629C467.034 408.093 466.767 408.516 466.424 408.874C466.081 409.232 465.669 409.518 465.214 409.713C464.758 409.909 464.268 410.011 463.772 410.013Z" fill="#1E1E1E"/>
<path d="M417.875 440.481C418.772 439.952 419.541 439.233 420.129 438.374C420.718 437.516 421.11 436.539 421.28 435.513C421.449 434.487 421.392 433.436 421.111 432.434C420.83 431.433 420.332 430.505 419.654 429.716L432.374 407.857L419.245 408.596L409.177 429.241C407.927 430.468 407.17 432.11 407.051 433.858C406.931 435.605 407.458 437.335 408.53 438.721C409.602 440.106 411.145 441.051 412.868 441.375C414.59 441.7 416.372 441.381 417.875 440.481Z" fill="#FFB7B7"/>
<path d="M423.009 424.41L411.254 415.262L432.614 373.903L424.61 321.234C424.214 318.63 424.397 315.972 425.146 313.447C425.894 310.922 427.19 308.593 428.94 306.625C430.691 304.656 432.854 303.097 435.275 302.058C437.697 301.019 440.318 300.525 442.952 300.612C447.709 300.773 452.208 302.814 455.461 306.286C458.714 309.758 460.456 314.378 460.305 319.132L458.327 379.103L423.009 424.41Z" fill="#1E1E1E"/>
<path d="M426.196 278.313V258.873C426.191 251.965 428.934 245.337 433.82 240.449C438.706 235.561 445.335 232.812 452.249 232.808C459.164 232.803 465.797 235.543 470.689 240.425C475.581 245.307 478.332 251.931 478.337 258.84V258.873C482.932 268.44 480.057 272.989 478.337 278.313C478.335 279.24 477.966 280.129 477.31 280.784C476.654 281.44 475.764 281.809 474.836 281.811H429.698C428.77 281.809 427.88 281.441 427.223 280.785C426.567 280.129 426.197 279.24 426.196 278.313Z" fill="#1E1E1E"/>
<path d="M443.718 280.547C454.496 280.547 463.233 271.818 463.233 261.049C463.233 250.28 454.496 241.55 443.718 241.55C432.941 241.55 424.204 250.28 424.204 261.049C424.204 271.818 432.941 280.547 443.718 280.547Z" fill="#FFB7B7"/>
<path d="M464.141 266.16C463.964 266.133 463.788 266.095 463.611 266.067C460.567 265.528 457.523 264.998 454.488 264.449L454.209 257.576L450.532 263.733C442.144 266.514 434.297 264.942 426.915 261.473C424.48 260.318 422.118 259.016 419.84 257.576C420.461 253.774 421.923 250.159 424.122 246.995C426.32 243.831 429.199 241.199 432.547 239.289C432.826 239.131 433.096 238.992 433.376 238.852L433.379 238.852L433.382 238.85L433.384 238.847L433.385 238.843C433.86 238.62 434.344 238.406 434.828 238.211C438.617 236.731 442.75 236.356 446.744 237.13C450.738 237.904 454.431 239.794 457.392 242.582C463.35 248.265 466.031 257.65 464.141 266.16Z" fill="#1E1E1E"/>
</g>
<defs>
<clipPath id="clip0_4_1220">
<rect width="565" height="528" fill="white"/>
</clipPath>
</defs>
</svg>
